<svg width="157" height="57" viewBox="0 0 157 57" fill="none" xmlns="http://www.w3.org/2000/svg">
<path fill-rule="evenodd" clip-rule="evenodd" d="M20.433 0.566025C18.1227 0.195535 15.8138 0.195535 13.5066 0.566025C13.4123 0.566025 13.3652 0.518954 13.3652 0.424671C15.7548 -0.185274 18.1108 -0.138203 20.433 0.566025Z" fill="#071646"/>
<path opacity="0.796" fill-rule="evenodd" clip-rule="evenodd" d="M11.6719 0.990025C11.334 1.20488 10.957 1.34624 10.541 1.41409C10.8497 1.11936 11.2267 0.97801 11.6719 0.990025Z" fill="#071646"/>
<path opacity="0.996" fill-rule="evenodd" clip-rule="evenodd" d="M10.539 1.41418C9.82998 1.86284 9.07614 2.23984 8.27734 2.54502C8.94835 2.02102 9.70234 1.64403 10.539 1.41418Z" fill="#071646"/>
<path fill-rule="evenodd" clip-rule="evenodd" d="M20.4351 0.566076C21.9421 0.863769 23.3557 1.38212 24.6758 2.12098C25.4515 2.6741 26.2526 3.1923 27.0788 3.67588C27.4925 3.85356 27.8225 4.13627 28.0683 4.524C28.2096 4.75964 28.3981 4.94807 28.6337 5.08942C28.7629 5.54572 28.81 6.01685 28.7751 6.50297C24.1844 1.6555 18.6245 0.0535239 12.0952 1.69691C11.9907 1.71543 11.8965 1.69182 11.8125 1.62624C12.2708 1.58623 12.318 1.46834 11.9539 1.27285C11.9834 1.19002 12.0306 1.11934 12.0952 1.06082C12.5092 0.950984 12.9098 0.974591 13.2967 1.13149C13.4647 0.981234 13.5353 0.792667 13.5088 0.566076C15.8159 0.195585 18.1248 0.195585 20.4351 0.566076Z" fill="#0D1A4B"/>
<path fill-rule="evenodd" clip-rule="evenodd" d="M37.8189 2.12089C37.8189 2.16796 37.8189 2.21517 37.8189 2.26224C35.073 2.1951 32.3401 2.26578 29.6203 2.47428C29.2938 2.70567 29.0818 3.01199 28.9842 3.39308C28.9136 4.52293 28.8901 5.65377 28.9136 6.78559C28.7951 6.73725 28.7479 6.64311 28.7722 6.50288C28.8071 6.01676 28.7601 5.54563 28.6309 5.08934C28.7155 4.34567 28.8333 3.59183 28.9842 2.82766C29.2811 2.40826 29.6817 2.14916 30.1858 2.05021C32.7543 1.93303 35.2987 1.95664 37.8189 2.12089Z" fill="#071646"/>
<path fill-rule="evenodd" clip-rule="evenodd" d="M37.8184 2.26214C38.3643 2.40689 38.7648 2.73667 39.0199 3.25163C39.0906 4.75861 39.1142 6.26644 39.0906 7.77497C38.9432 8.13627 38.7076 8.44259 38.3838 8.69378C36.3064 9.99071 34.186 11.1686 32.0229 12.2276C32.1367 12.0703 32.231 11.9055 32.3056 11.7329C33.0787 10.8408 33.8325 9.92201 34.5673 8.97649C33.1546 8.90581 31.741 8.88234 30.3266 8.90581C29.7144 8.83626 29.2433 8.55355 28.9131 8.05768C28.9131 7.63362 28.9131 7.20955 28.9131 6.78549C28.8896 5.65366 28.9131 4.52283 28.9838 3.39298C29.0813 3.01189 29.2933 2.70557 29.6199 2.47417C32.3397 2.26568 35.0725 2.195 37.8184 2.26214ZM31.4575 4.94788C32.3768 4.89671 32.6125 5.2501 32.1642 6.00804C31.2094 6.1149 30.9738 5.76152 31.4575 4.94788ZM33.7191 4.94788C34.6603 4.78447 34.943 5.13786 34.5673 6.00804C33.5834 6.17993 33.3007 5.82654 33.7191 4.94788ZM35.9808 4.94788C36.9399 4.82434 37.2226 5.17772 36.8289 6.00804C35.8748 6.21569 35.5921 5.8623 35.9808 4.94788Z" fill="#66FFFF"/>
<path fill-rule="evenodd" clip-rule="evenodd" d="M37.8184 2.26214C38.3643 2.40689 38.7648 2.73667 39.0199 3.25163C39.0906 4.75861 39.1142 6.26644 39.0906 7.77497C38.9432 8.13627 38.7076 8.44259 38.3838 8.69378C36.3064 9.99071 34.186 11.1686 32.0229 12.2276C32.1367 12.0703 32.231 11.9055 32.3056 11.7329C33.0787 10.8408 33.8325 9.92201 34.5673 8.97649C33.1546 8.90581 31.741 8.88234 30.3266 8.90581C29.7144 8.83626 29.2433 8.55355 28.9131 8.05768C28.9131 7.63362 28.9131 7.20955 28.9131 6.78549C28.8896 5.65366 28.9131 4.52283 28.9838 3.39298C29.0813 3.01189 29.2933 2.70557 29.6199 2.47417C32.3397 2.26568 35.0725 2.195 37.8184 2.26214ZM31.4575 4.94788C32.3768 4.89671 32.6125 5.2501 32.1642 6.00804C31.2094 6.1149 30.9738 5.76152 31.4575 4.94788ZM33.7191 4.94788C34.6603 4.78447 34.943 5.13786 34.5673 6.00804C33.5834 6.17993 33.3007 5.82654 33.7191 4.94788ZM35.9808 4.94788C36.9399 4.82434 37.2226 5.17772 36.8289 6.00804C35.8748 6.21569 35.5921 5.8623 35.9808 4.94788Z" fill="url(#paint0_linear_140_432)" fill-opacity="0.3"/>
<path opacity="0.957" fill-rule="evenodd" clip-rule="evenodd" d="M24.6719 2.12091C25.5945 2.46355 26.3954 2.9819 27.0749 3.67581C26.2487 3.19224 25.4476 2.67403 24.6719 2.12091Z" fill="#071646"/>
<path fill-rule="evenodd" clip-rule="evenodd" d="M27.6386 19.6488C27.4139 19.6669 27.2254 19.7612 27.0732 19.9316C26.1034 22.1968 24.5957 24.0108 22.5498 25.3737C21.6973 25.8 20.8492 26.2241 20.0055 26.6459C20.3208 27.1255 20.6977 27.526 21.1363 27.8474C20.8713 28.4106 20.6828 28.9995 20.5709 29.6143C20.7935 30.3809 20.6522 31.0641 20.1468 31.664C20.387 30.6394 20.4576 29.6029 20.3588 28.5542C20.2202 27.9939 19.9375 27.5227 19.5107 27.1406C19.4889 27.6492 19.3476 28.1204 19.0867 28.5542C18.6133 29.004 18.1656 29.4751 17.7438 29.9677C18.1712 30.5357 18.5953 31.1011 19.016 31.664C18.8001 31.6537 18.6588 31.748 18.5919 31.9467C18.5 31.9037 18.4057 31.8567 18.3092 31.8053C18.1649 32.0034 18.0235 32.1919 17.8851 32.3708C17.9054 32.1217 17.8581 31.8861 17.7438 31.664C18.112 31.1524 18.0884 30.6813 17.6731 30.2504C17.3204 30.4288 17.2734 30.3818 17.5318 30.1091C17.626 29.9207 17.626 29.7321 17.5318 29.5437C17.3668 29.7086 17.202 29.8734 17.037 30.0384C16.9046 30.1362 16.8104 30.1126 16.7543 29.9677C16.9899 29.8264 17.1784 29.638 17.3197 29.4023C17.5081 29.308 17.6495 29.1667 17.7438 28.9783C17.9551 28.9903 18.0965 28.8961 18.1678 28.6955C17.1344 28.5781 16.0978 28.5074 15.058 28.4835C14.9517 28.3887 14.9045 28.2709 14.9167 28.1301C15.4379 28.3906 16.0033 28.4849 16.6129 28.4128C17.1313 28.4128 17.6495 28.4128 18.1678 28.4128C18.593 28.2223 18.7815 27.8924 18.7333 27.4233C18.7212 27.1642 18.627 26.9758 18.4506 26.8579C18.9111 26.7631 19.3822 26.6453 19.8641 26.5045C19.2533 26.434 18.6408 26.4104 18.0265 26.4339C21.7194 25.7294 24.4287 23.7033 26.1544 20.3556C26.4203 19.8175 26.5851 19.2521 26.6491 18.6594C26.8463 18.0811 26.9641 17.4686 27.0025 16.8218C27.0968 15.1255 27.0968 13.4292 27.0025 11.733C26.9639 11.5067 26.8932 11.2946 26.7905 11.0969C26.4165 11.0266 26.0395 11.003 25.6596 11.0262C24.6319 10.5886 23.9958 9.83474 23.7514 8.76454C23.4705 8.23489 23.0228 7.97564 22.4085 7.98709C22.0733 7.60459 21.6965 7.27481 21.2776 6.99761C18.3092 6.90333 15.3408 6.90333 12.3723 6.99761C11.9535 7.27481 11.5766 7.60459 11.2415 7.98709C10.2079 8.03134 9.71315 8.57329 9.75725 9.61267C9.18815 10.0647 8.64634 10.536 8.13167 11.0262C7.66054 11.0262 7.18926 11.0262 6.71812 11.0262C6.58907 12.671 6.542 14.3202 6.57677 15.9736C6.46241 15.7203 6.39174 15.4376 6.36474 15.1255C6.31767 16.3506 6.27045 17.5756 6.22338 18.8007C6.0669 18.972 5.99623 18.925 6.01135 18.6594C6.09956 18.6004 6.14663 18.5061 6.15271 18.3767C5.93643 16.7829 5.84215 15.1808 5.87 13.5706C5.98435 13.8239 6.05503 14.1066 6.08203 14.4187C6.17631 13.8062 6.17631 13.1936 6.08203 12.5811C6.02789 12.5025 5.95721 12.4555 5.87 12.4398C6.13574 9.99984 7.17244 7.9502 8.9798 6.29084C13.3427 2.73422 18.0074 2.31015 22.9739 5.01865C25.8137 6.80876 27.4629 9.37661 27.9213 12.7225C28.6802 13.3929 29.0572 14.241 29.0521 15.2669C29.0311 16.8844 28.56 18.3451 27.6386 19.6488Z" fill="#091948"/>
<path opacity="0.937" fill-rule="evenodd" clip-rule="evenodd" d="M6.43992 3.8172C6.24047 4.15843 5.95776 4.39407 5.5918 4.52397C5.79125 4.18274 6.07396 3.9471 6.43992 3.8172Z" fill="#071646"/>
<path opacity="0.016" fill-rule="evenodd" clip-rule="evenodd" d="M28.0664 4.52393C28.3962 4.571 28.5848 4.75956 28.6318 5.08934C28.3962 4.94799 28.2078 4.75956 28.0664 4.52393Z" fill="#B4BEC1"/>
<path opacity="0.643" fill-rule="evenodd" clip-rule="evenodd" d="M5.59177 4.52399C5.26199 4.94805 4.885 5.32504 4.46094 5.65482C4.69658 5.13648 5.07343 4.75962 5.59177 4.52399Z" fill="#071646"/>
<path opacity="0.988" fill-rule="evenodd" clip-rule="evenodd" d="M37.8164 2.26227C37.8164 2.21519 37.8164 2.16798 37.8164 2.12091C38.4401 2.20148 38.8876 2.53126 39.1593 3.11039C39.2018 3.96135 39.2725 4.80947 39.3713 5.65478C39.2466 6.37399 39.1996 7.08076 39.23 7.77509C39.1829 7.77509 39.1357 7.77509 39.0886 7.77509C39.1122 6.26656 39.0886 4.75873 39.0179 3.25175C38.7628 2.73679 38.3623 2.40701 37.8164 2.26227Z" fill="#071646"/>
<path fill-rule="evenodd" clip-rule="evenodd" d="M25.6638 11.0262C25.9171 11.1406 26.1998 11.2112 26.5119 11.2382C26.2637 11.2668 26.0282 11.3375 25.8051 11.4503C26.1772 12.272 26.2713 13.1201 26.0878 13.9946C25.9458 13.426 25.6631 12.9547 25.2397 12.5811C24.6982 12.0056 24.0856 11.5344 23.4021 11.1676C22.285 10.5713 21.2012 10.6185 20.1509 11.3089C18.8245 12.1696 18.0706 13.3946 17.8893 14.9841C17.8631 15.4988 17.9573 15.9699 18.172 16.3977C18.2254 16.7399 18.3197 17.0697 18.4547 17.3872C19.6767 19.2922 21.373 19.8811 23.5435 19.1541C24.5202 18.7665 25.1799 18.0832 25.5224 17.1044C25.4981 16.9642 25.5453 16.8701 25.6638 16.8217C25.8771 16.6296 25.9714 16.7003 25.9465 17.0338C25.0226 21.2557 22.4311 23.7531 18.172 24.5256C14.5526 24.8819 11.5842 23.6804 9.26664 20.921C8.41074 19.5557 7.84532 18.0715 7.57039 16.4684C7.57435 16.3171 7.62142 16.1994 7.71174 16.115C7.82228 16.6186 8.01085 17.0899 8.27716 17.5285C9.82231 19.6815 11.7542 20.0819 14.0727 18.73C15.1067 17.911 15.6721 16.8509 15.769 15.5495C15.8261 13.6838 15.0721 12.2703 13.5073 11.3089C12.4458 10.6252 11.3621 10.5781 10.2561 11.1676C9.57268 11.5344 8.96005 12.0056 8.41852 12.5811C8.14768 12.8095 7.93565 12.7623 7.78242 12.4397C7.68531 12.7321 7.70892 13.0148 7.8531 13.2879C7.77507 13.547 7.65732 13.7826 7.49971 13.9946C7.39709 12.9285 7.60912 11.9391 8.13581 11.0262C8.65048 10.536 9.19229 10.0647 9.76139 9.61265C9.71728 8.57327 10.212 8.03132 11.2456 7.98707C11.5808 7.60457 11.9576 7.27479 12.3764 6.99759C15.3449 6.90331 18.3133 6.90331 21.2818 6.99759C21.7006 7.27479 22.0775 7.60457 22.4126 7.98707C23.0269 7.97562 23.4746 8.23487 23.7555 8.76452C23.9999 9.83472 24.636 10.5886 25.6638 11.0262Z" fill="#F7FBE9"/>
<path opacity="0.961" fill-rule="evenodd" clip-rule="evenodd" d="M4.46066 5.65485C3.90132 6.4969 3.28883 7.29781 2.62305 8.05787C3.07397 7.13539 3.6866 6.33448 4.46066 5.65485Z" fill="#201316"/>
<path fill-rule="evenodd" clip-rule="evenodd" d="M13.3655 0.424683C13.3655 0.518966 13.4125 0.566037 13.5068 0.566037C13.5334 0.792629 13.4627 0.981196 13.2948 1.13146C12.9079 0.974552 12.5073 0.950946 12.0933 1.06078C12.0287 1.1193 11.9815 1.18998 11.9519 1.27281C12.316 1.4683 12.2688 1.58619 11.8106 1.6262C11.8945 1.69179 11.9888 1.71539 12.0933 1.69687C6.16754 3.8302 2.51593 7.97655 1.13828 14.1361C0.642978 17.2835 0.949152 20.3462 2.05709 23.3241C1.84718 23.527 1.65875 23.5034 1.49167 23.2534C1.8452 23.053 1.79813 22.9117 1.35032 22.8294C1.75063 22.5597 1.70356 22.4419 1.20896 22.476C1.24727 22.0035 1.15313 21.6737 0.926253 21.4865C0.943357 21.2895 0.990428 21.1009 1.06761 20.9211C1.0187 20.752 0.948021 20.752 0.855575 20.9211C0.745177 20.7474 0.6745 20.5589 0.643543 20.3557C0.834513 20.0854 0.928797 19.7792 0.926253 19.4369C0.692452 18.012 0.574562 16.5749 0.572866 15.1256C0.525654 16.5414 0.454976 17.9549 0.360834 19.3662C0.212836 18.5687 0.118694 17.7442 0.078125 16.8925C0.177639 15.8319 0.271922 14.7717 0.360834 13.712C0.651601 11.6255 1.40544 9.7408 2.62251 8.05783C3.28829 7.29777 3.90078 6.49685 4.46012 5.6548C4.88418 5.32502 5.26117 4.94803 5.59095 4.52397C5.95692 4.39406 6.23963 4.15842 6.43908 3.81719C6.93396 3.22887 7.5466 2.80481 8.27669 2.545C9.07549 2.23982 9.82933 1.86282 10.5384 1.41416C10.9544 1.34631 11.3314 1.20496 11.6692 0.990101C12.1943 0.72082 12.7598 0.532395 13.3655 0.424683Z" fill="#0A1A44"/>
<path opacity="0.251" fill-rule="evenodd" clip-rule="evenodd" d="M33.2937 12.5812C33.5907 13.7902 33.7793 15.0153 33.8591 16.2564C33.7719 16.2407 33.7012 16.1936 33.6471 16.115C33.597 14.99 33.4321 13.8828 33.1523 12.7932C33.1622 12.6851 33.2093 12.6144 33.2937 12.5812Z" fill="#071646"/>
<path fill-rule="evenodd" clip-rule="evenodd" d="M28.7726 6.50294C28.7483 6.64317 28.7955 6.73731 28.9139 6.78565C28.9139 7.20972 28.9139 7.63378 28.9139 8.05784C29.1042 9.23533 29.811 9.80075 31.0343 9.7541C31.5064 10.3939 31.7655 11.1006 31.8117 11.8744C31.488 12.3098 31.1817 12.7575 30.8929 13.2173C30.9636 13.288 31.0343 13.3586 31.1049 13.4293C31.4472 13.2228 31.8005 13.0344 32.1651 12.8639C32.2629 12.9381 32.3336 13.0324 32.3771 13.1466C32.8122 14.8793 32.9301 16.6228 32.7305 18.3767C32.6285 18.4358 32.5578 18.53 32.5185 18.6594C32.4242 18.471 32.3301 18.2824 32.2358 18.094C32.0784 18.2652 31.9135 18.2652 31.741 18.094C31.5978 19.1341 31.4565 20.1707 31.317 21.2038C31.1756 21.2038 31.0343 21.2038 30.8929 21.2038C30.7548 21.8232 30.59 22.4359 30.3982 23.0414C30.1948 23.2554 29.9827 23.3025 29.7621 23.1828C29.4779 23.419 29.1482 23.5133 28.7726 23.4655C28.8149 23.7629 28.7678 24.0456 28.6312 24.3136C28.4593 24.2427 28.2944 24.1956 28.1365 24.1723C28.0667 23.9413 28.0432 23.7057 28.0658 23.4655C27.7831 23.4655 27.5004 23.4655 27.2177 23.4655C27.2515 23.7435 27.2044 24.0028 27.0763 24.2429C26.5867 24.3584 26.1154 24.3112 25.6628 24.1016C25.7542 23.8741 25.872 23.6621 26.0162 23.4655C26.1575 23.5126 26.2989 23.5598 26.4402 23.6068C26.5843 23.3568 26.6079 23.1212 26.5109 22.9001C26.734 22.7873 26.9695 22.7166 27.2177 22.688C27.0095 22.5877 26.9152 22.4229 26.935 22.1933C26.7054 22.1735 26.5406 22.2678 26.4402 22.476C26.346 22.2876 26.346 22.099 26.4402 21.9106C26.8039 22.1202 27.1103 22.0495 27.359 21.6986C27.0117 21.4848 27.0117 21.2963 27.359 21.1331C27.312 21.0861 27.2648 21.0389 27.2177 20.9918C27.5171 20.955 27.7526 20.8137 27.9245 20.5677C27.5723 20.4792 27.5723 20.3615 27.9245 20.2143C27.6758 20.0371 27.4638 20.0841 27.2884 20.3557C27.2201 20.2217 27.1966 20.0803 27.2177 19.9316C27.455 19.962 27.5964 19.8677 27.6418 19.6489C28.5631 18.3452 29.0342 16.8844 29.0553 15.2669C29.0604 14.2411 28.6834 13.393 27.9245 12.7225C27.466 9.37668 25.8169 6.80883 22.9771 5.01872C18.0106 2.31022 13.3459 2.73429 8.98295 6.29091C7.17559 7.95027 6.13889 9.99991 5.87314 12.4398C4.66018 13.5999 4.25972 15.0135 4.67163 16.6805C4.79871 17.4246 5.0342 18.1313 5.3784 18.8008C5.618 19.2524 5.97139 19.5822 6.43856 19.7903C6.94461 20.9447 7.5571 22.0283 8.27617 23.0414C8.16832 23.15 8.02696 23.2207 7.85211 23.2535C7.98654 23.355 8.01 23.4727 7.92279 23.6068C7.79656 23.4357 7.67881 23.4357 7.5694 23.6068C7.59894 23.6897 7.64615 23.7604 7.71075 23.8189C7.57194 24.2059 7.4778 24.6065 7.42804 25.0204C7.09826 25.0204 6.76834 25.0204 6.43856 25.0204C6.43856 24.879 6.43856 24.7377 6.43856 24.5963C6.29721 24.5963 6.15585 24.5963 6.0145 24.5963C6.04546 24.7624 5.99838 24.9038 5.87314 25.0204C5.46081 24.9404 5.03675 24.9404 4.60095 25.0204C4.60095 24.7848 4.60095 24.5493 4.60095 24.3136C4.27499 24.2439 3.94521 24.1969 3.61147 24.1723C3.58122 23.9399 3.62843 23.7278 3.75283 23.5362C3.61882 23.4679 3.47747 23.4444 3.32876 23.4655C3.32876 23.2299 3.32876 22.9944 3.32876 22.7587C3.02655 22.73 2.79091 22.5887 2.62199 22.3347C2.40741 22.6345 2.26606 22.9642 2.19792 23.3241C2.15085 23.3241 2.10364 23.3241 2.05657 23.3241C0.948633 20.3462 0.642459 17.2835 1.13777 14.1361C2.51541 7.97656 6.16702 3.83021 12.0927 1.69689C18.6221 0.0534986 24.182 1.65547 28.7726 6.50294Z" fill="#66FFFF"/>
<path fill-rule="evenodd" clip-rule="evenodd" d="M28.7726 6.50294C28.7483 6.64317 28.7955 6.73731 28.9139 6.78565C28.9139 7.20972 28.9139 7.63378 28.9139 8.05784C29.1042 9.23533 29.811 9.80075 31.0343 9.7541C31.5064 10.3939 31.7655 11.1006 31.8117 11.8744C31.488 12.3098 31.1817 12.7575 30.8929 13.2173C30.9636 13.288 31.0343 13.3586 31.1049 13.4293C31.4472 13.2228 31.8005 13.0344 32.1651 12.8639C32.2629 12.9381 32.3336 13.0324 32.3771 13.1466C32.8122 14.8793 32.9301 16.6228 32.7305 18.3767C32.6285 18.4358 32.5578 18.53 32.5185 18.6594C32.4242 18.471 32.3301 18.2824 32.2358 18.094C32.0784 18.2652 31.9135 18.2652 31.741 18.094C31.5978 19.1341 31.4565 20.1707 31.317 21.2038C31.1756 21.2038 31.0343 21.2038 30.8929 21.2038C30.7548 21.8232 30.59 22.4359 30.3982 23.0414C30.1948 23.2554 29.9827 23.3025 29.7621 23.1828C29.4779 23.419 29.1482 23.5133 28.7726 23.4655C28.8149 23.7629 28.7678 24.0456 28.6312 24.3136C28.4593 24.2427 28.2944 24.1956 28.1365 24.1723C28.0667 23.9413 28.0432 23.7057 28.0658 23.4655C27.7831 23.4655 27.5004 23.4655 27.2177 23.4655C27.2515 23.7435 27.2044 24.0028 27.0763 24.2429C26.5867 24.3584 26.1154 24.3112 25.6628 24.1016C25.7542 23.8741 25.872 23.6621 26.0162 23.4655C26.1575 23.5126 26.2989 23.5598 26.4402 23.6068C26.5843 23.3568 26.6079 23.1212 26.5109 22.9001C26.734 22.7873 26.9695 22.7166 27.2177 22.688C27.0095 22.5877 26.9152 22.4229 26.935 22.1933C26.7054 22.1735 26.5406 22.2678 26.4402 22.476C26.346 22.2876 26.346 22.099 26.4402 21.9106C26.8039 22.1202 27.1103 22.0495 27.359 21.6986C27.0117 21.4848 27.0117 21.2963 27.359 21.1331C27.312 21.0861 27.2648 21.0389 27.2177 20.9918C27.5171 20.955 27.7526 20.8137 27.9245 20.5677C27.5723 20.4792 27.5723 20.3615 27.9245 20.2143C27.6758 20.0371 27.4638 20.0841 27.2884 20.3557C27.2201 20.2217 27.1966 20.0803 27.2177 19.9316C27.455 19.962 27.5964 19.8677 27.6418 19.6489C28.5631 18.3452 29.0342 16.8844 29.0553 15.2669C29.0604 14.2411 28.6834 13.393 27.9245 12.7225C27.466 9.37668 25.8169 6.80883 22.9771 5.01872C18.0106 2.31022 13.3459 2.73429 8.98295 6.29091C7.17559 7.95027 6.13889 9.99991 5.87314 12.4398C4.66018 13.5999 4.25972 15.0135 4.67163 16.6805C4.79871 17.4246 5.0342 18.1313 5.3784 18.8008C5.618 19.2524 5.97139 19.5822 6.43856 19.7903C6.94461 20.9447 7.5571 22.0283 8.27617 23.0414C8.16832 23.15 8.02696 23.2207 7.85211 23.2535C7.98654 23.355 8.01 23.4727 7.92279 23.6068C7.79656 23.4357 7.67881 23.4357 7.5694 23.6068C7.59894 23.6897 7.64615 23.7604 7.71075 23.8189C7.57194 24.2059 7.4778 24.6065 7.42804 25.0204C7.09826 25.0204 6.76834 25.0204 6.43856 25.0204C6.43856 24.879 6.43856 24.7377 6.43856 24.5963C6.29721 24.5963 6.15585 24.5963 6.0145 24.5963C6.04546 24.7624 5.99838 24.9038 5.87314 25.0204C5.46081 24.9404 5.03675 24.9404 4.60095 25.0204C4.60095 24.7848 4.60095 24.5493 4.60095 24.3136C4.27499 24.2439 3.94521 24.1969 3.61147 24.1723C3.58122 23.9399 3.62843 23.7278 3.75283 23.5362C3.61882 23.4679 3.47747 23.4444 3.32876 23.4655C3.32876 23.2299 3.32876 22.9944 3.32876 22.7587C3.02655 22.73 2.79091 22.5887 2.62199 22.3347C2.40741 22.6345 2.26606 22.9642 2.19792 23.3241C2.15085 23.3241 2.10364 23.3241 2.05657 23.3241C0.948633 20.3462 0.642459 17.2835 1.13777 14.1361C2.51541 7.97656 6.16702 3.83021 12.0927 1.69689C18.6221 0.0534986 24.182 1.65547 28.7726 6.50294Z" fill="url(#paint1_linear_140_432)" fill-opacity="0.3"/>
<path fill-rule="evenodd" clip-rule="evenodd" d="M21.5625 6.64435C22.1987 7.12778 22.9055 7.50463 23.6828 7.77518C23.867 7.60301 24.0084 7.65009 24.1069 7.91654C24.154 7.77518 24.2012 7.63383 24.2482 7.49248C24.139 7.18432 23.9976 6.90161 23.8242 6.64435C25.1408 7.62379 26.0832 8.89599 26.6513 10.4609C26.5061 10.6763 26.2941 10.7706 26.0152 10.7436C25.8502 10.72 25.6854 10.6966 25.5204 10.673C25.0728 10.2253 24.6252 9.77776 24.1776 9.33009C24.1254 8.38273 23.6307 7.84077 22.6933 7.70451C22.2458 7.4218 21.869 7.06841 21.5625 6.64435Z" fill="#F3F9E9"/>
<path fill-rule="evenodd" clip-rule="evenodd" d="M23.8251 6.64417C23.9985 6.90144 24.1399 7.18415 24.2492 7.4923C24.2021 7.63366 24.1549 7.77501 24.1078 7.91637C24.0093 7.64991 23.8679 7.60284 23.6837 7.77501C22.9064 7.50446 22.1997 7.12761 21.5634 6.64417C18.4306 6.47978 15.2737 6.45617 12.0927 6.5735C12.0141 6.62764 11.967 6.69831 11.9513 6.78553C11.6068 7.05877 11.2769 7.36508 10.9618 7.70433C9.89715 7.80328 9.33173 8.39217 9.26558 9.47127C8.82017 9.84586 8.39611 10.2465 7.99339 10.6728C7.66686 10.743 7.33708 10.7665 7.00391 10.7435C7.97727 7.90817 9.86195 5.9056 12.6581 4.73589C13.3521 4.48103 14.0589 4.26899 14.7784 4.09979C15.109 4.40328 15.3917 4.75667 15.6265 5.15995C16.307 5.56889 17.0138 5.61596 17.7469 5.30131C18.1561 4.93986 18.5095 4.53941 18.807 4.09979C20.7545 4.44908 22.4271 5.29721 23.8251 6.64417Z" fill="#F3F9E9"/>
<path fill-rule="evenodd" clip-rule="evenodd" d="M15.627 3.95847C16.4335 3.91197 17.2344 3.95918 18.03 4.09983C17.1457 5.24834 16.3446 5.20126 15.627 3.95847Z" fill="#F3F9E9"/>
<path fill-rule="evenodd" clip-rule="evenodd" d="M5.87484 13.5706C5.84699 15.1808 5.94128 16.7829 6.15755 18.3767C6.15147 18.5062 6.1044 18.6004 6.0162 18.6594C5.59114 17.6423 5.3555 16.5822 5.30942 15.4789C5.20892 14.7372 5.39734 14.1011 5.87484 13.5706Z" fill="#F7FBE9"/>
<path fill-rule="evenodd" clip-rule="evenodd" d="M27.7843 13.712C27.9666 13.7909 28.0844 13.9323 28.1377 14.1361C28.4571 15.6593 28.2687 17.1201 27.5723 18.5181C27.6738 16.9215 27.7444 15.3195 27.7843 13.712Z" fill="#F7FBE9"/>
<path opacity="0.99" fill-rule="evenodd" clip-rule="evenodd" d="M0.360777 13.712C0.271865 14.7718 0.177582 15.8319 0.078068 16.8925C0.118637 17.7442 0.212779 18.5687 0.360777 19.3662C0.894956 23.6633 2.77964 27.2206 6.01496 30.0385C5.98273 30.0949 5.93552 30.1184 5.87361 30.1092C0.987402 25.675 -0.850208 20.2094 0.360777 13.712Z" fill="#071646"/>
<path fill-rule="evenodd" clip-rule="evenodd" d="M32.7297 18.3766C32.5405 21.5804 31.4803 24.4546 29.5492 26.9993C29.48 27.2883 29.5036 27.5711 29.6199 27.8474C29.4127 27.7277 29.2948 27.5392 29.2665 27.282C29.2195 27.4233 29.1723 27.5647 29.1252 27.706C29.0781 27.4233 29.0309 27.1406 28.9838 26.8579C28.9156 26.9919 28.8921 27.1333 28.9132 27.282C28.5904 27.2972 28.3077 27.415 28.065 27.6354C27.5727 28.0932 27.0543 28.5173 26.5101 28.9076C26.3611 29.2443 26.2669 29.5977 26.2274 29.9677C26.0861 29.9677 25.9447 29.9677 25.8034 29.9677C25.8034 29.9206 25.8034 29.8734 25.8034 29.8264C26.1577 29.4782 26.0634 29.2191 25.5206 29.0489C24.1887 28.882 22.9165 28.5286 21.7041 27.9888C21.5156 27.9417 21.3271 27.8945 21.1386 27.8474C20.7 27.526 20.3232 27.1255 20.0078 26.6459C20.8516 26.2241 21.6997 25.8 22.5522 25.3737C24.598 24.0108 26.1057 22.1968 27.0755 19.9315C27.2278 19.7612 27.4162 19.6669 27.641 19.6488C27.5956 19.8677 27.4542 19.9619 27.2169 19.9315C27.1958 20.0802 27.2193 20.2216 27.2876 20.3556C27.463 20.0841 27.675 20.037 27.9237 20.2143C27.5716 20.3614 27.5716 20.4792 27.9237 20.5676C27.7518 20.8136 27.5163 20.955 27.2169 20.9917C27.264 21.0388 27.3112 21.086 27.3583 21.1331C27.0109 21.2962 27.0109 21.4847 27.3583 21.6985C27.1095 22.0495 26.8032 22.1201 26.4394 21.9105C26.3452 22.0989 26.3452 22.2875 26.4394 22.4759C26.5398 22.2677 26.7046 22.1734 26.9342 22.1932C26.9144 22.4228 27.0087 22.5876 27.2169 22.688C26.9687 22.7165 26.7332 22.7872 26.5101 22.9C26.6071 23.1211 26.5835 23.3567 26.4394 23.6068C26.2981 23.5597 26.1567 23.5125 26.0154 23.4654C25.8712 23.662 25.7535 23.8741 25.662 24.1015C26.1146 24.3111 26.5859 24.3583 27.0755 24.2429C27.2036 24.0027 27.2507 23.7435 27.2169 23.4654C27.4996 23.4654 27.7823 23.4654 28.065 23.4654C28.0424 23.7056 28.0659 23.9412 28.1357 24.1722C28.2936 24.1955 28.4586 24.2426 28.6304 24.3135C28.767 24.0455 28.8141 23.7628 28.7718 23.4654C29.1474 23.5132 29.4772 23.4189 29.7613 23.1827C29.9819 23.3024 30.194 23.2554 30.3974 23.0413C30.5892 22.4358 30.754 21.8231 30.8921 21.2037C31.0335 21.2037 31.1748 21.2037 31.3162 21.2037C31.4557 20.1706 31.5971 19.134 31.7402 18.0939C31.9127 18.2651 32.0777 18.2651 32.235 18.0939C32.3293 18.2824 32.4234 18.4709 32.5177 18.6594C32.557 18.5299 32.6277 18.4357 32.7297 18.3766Z" fill="#66FFFF"/>
<path fill-rule="evenodd" clip-rule="evenodd" d="M32.7297 18.3766C32.5405 21.5804 31.4803 24.4546 29.5492 26.9993C29.48 27.2883 29.5036 27.5711 29.6199 27.8474C29.4127 27.7277 29.2948 27.5392 29.2665 27.282C29.2195 27.4233 29.1723 27.5647 29.1252 27.706C29.0781 27.4233 29.0309 27.1406 28.9838 26.8579C28.9156 26.9919 28.8921 27.1333 28.9132 27.282C28.5904 27.2972 28.3077 27.415 28.065 27.6354C27.5727 28.0932 27.0543 28.5173 26.5101 28.9076C26.3611 29.2443 26.2669 29.5977 26.2274 29.9677C26.0861 29.9677 25.9447 29.9677 25.8034 29.9677C25.8034 29.9206 25.8034 29.8734 25.8034 29.8264C26.1577 29.4782 26.0634 29.2191 25.5206 29.0489C24.1887 28.882 22.9165 28.5286 21.7041 27.9888C21.5156 27.9417 21.3271 27.8945 21.1386 27.8474C20.7 27.526 20.3232 27.1255 20.0078 26.6459C20.8516 26.2241 21.6997 25.8 22.5522 25.3737C24.598 24.0108 26.1057 22.1968 27.0755 19.9315C27.2278 19.7612 27.4162 19.6669 27.641 19.6488C27.5956 19.8677 27.4542 19.9619 27.2169 19.9315C27.1958 20.0802 27.2193 20.2216 27.2876 20.3556C27.463 20.0841 27.675 20.037 27.9237 20.2143C27.5716 20.3614 27.5716 20.4792 27.9237 20.5676C27.7518 20.8136 27.5163 20.955 27.2169 20.9917C27.264 21.0388 27.3112 21.086 27.3583 21.1331C27.0109 21.2962 27.0109 21.4847 27.3583 21.6985C27.1095 22.0495 26.8032 22.1201 26.4394 21.9105C26.3452 22.0989 26.3452 22.2875 26.4394 22.4759C26.5398 22.2677 26.7046 22.1734 26.9342 22.1932C26.9144 22.4228 27.0087 22.5876 27.2169 22.688C26.9687 22.7165 26.7332 22.7872 26.5101 22.9C26.6071 23.1211 26.5835 23.3567 26.4394 23.6068C26.2981 23.5597 26.1567 23.5125 26.0154 23.4654C25.8712 23.662 25.7535 23.8741 25.662 24.1015C26.1146 24.3111 26.5859 24.3583 27.0755 24.2429C27.2036 24.0027 27.2507 23.7435 27.2169 23.4654C27.4996 23.4654 27.7823 23.4654 28.065 23.4654C28.0424 23.7056 28.0659 23.9412 28.1357 24.1722C28.2936 24.1955 28.4586 24.2426 28.6304 24.3135C28.767 24.0455 28.8141 23.7628 28.7718 23.4654C29.1474 23.5132 29.4772 23.4189 29.7613 23.1827C29.9819 23.3024 30.194 23.2554 30.3974 23.0413C30.5892 22.4358 30.754 21.8231 30.8921 21.2037C31.0335 21.2037 31.1748 21.2037 31.3162 21.2037C31.4557 20.1706 31.5971 19.134 31.7402 18.0939C31.9127 18.2651 32.0777 18.2651 32.235 18.0939C32.3293 18.2824 32.4234 18.4709 32.5177 18.6594C32.557 18.5299 32.6277 18.4357 32.7297 18.3766Z" fill="url(#paint2_linear_140_432)" fill-opacity="0.3"/>
<path fill-rule="evenodd" clip-rule="evenodd" d="M26.6528 18.6594C26.5887 19.2521 26.4239 19.8175 26.158 20.3556C24.4324 23.7033 21.723 25.7294 18.0301 26.4339C15.273 26.6138 12.8228 25.86 10.6797 24.1722C14.7422 26.834 18.7943 26.8104 22.8362 24.1015C23.242 23.7194 23.619 23.319 23.967 22.9C24.5788 22.452 25.0735 21.8866 25.4512 21.2037C25.8845 20.2702 26.285 19.4221 26.6528 18.6594Z" fill="#F7FBE9"/>
<path fill-rule="evenodd" clip-rule="evenodd" d="M8.27747 23.0414C9.72564 24.6315 11.469 25.7623 13.5076 26.4339C13.3913 26.8369 13.2028 27.2139 12.9422 27.5647C12.3745 27.8016 11.8091 28.0373 11.2459 28.2715C10.1124 28.6163 8.95795 28.899 7.78272 29.1196C7.55726 29.2406 7.43952 29.429 7.42934 29.685C7.381 29.8035 7.28685 29.8507 7.14663 29.8264C5.54056 28.6204 4.19769 27.1596 3.11802 25.4444C2.73142 24.766 2.4251 24.0593 2.19922 23.3241C2.26735 22.9642 2.40871 22.6344 2.62328 22.3346C2.7922 22.5886 3.02784 22.73 3.33006 22.7587C3.33006 22.9943 3.33006 23.2298 3.33006 23.4654C3.47876 23.4444 3.62012 23.4678 3.75412 23.5361C3.62973 23.7278 3.58251 23.9398 3.61276 24.1722C3.9465 24.1968 4.27628 24.2439 4.60225 24.3136C4.60225 24.5492 4.60225 24.7847 4.60225 25.0203C5.03804 24.9403 5.46211 24.9403 5.87444 25.0203C5.99968 24.9037 6.04675 24.7624 6.01579 24.5963C6.15715 24.5963 6.2985 24.5963 6.43986 24.5963C6.43986 24.7376 6.43986 24.879 6.43986 25.0203C6.76964 25.0203 7.09956 25.0203 7.42934 25.0203C7.4791 24.6064 7.57324 24.2058 7.71205 23.8188C7.64745 23.7603 7.60024 23.6896 7.57069 23.6068C7.6801 23.4356 7.79785 23.4356 7.92408 23.6068C8.0113 23.4726 7.98783 23.3549 7.8534 23.2534C8.02826 23.2206 8.16961 23.1499 8.27747 23.0414Z" fill="#66FFFF"/>
<path fill-rule="evenodd" clip-rule="evenodd" d="M8.27747 23.0414C9.72564 24.6315 11.469 25.7623 13.5076 26.4339C13.3913 26.8369 13.2028 27.2139 12.9422 27.5647C12.3745 27.8016 11.8091 28.0373 11.2459 28.2715C10.1124 28.6163 8.95795 28.899 7.78272 29.1196C7.55726 29.2406 7.43952 29.429 7.42934 29.685C7.381 29.8035 7.28685 29.8507 7.14663 29.8264C5.54056 28.6204 4.19769 27.1596 3.11802 25.4444C2.73142 24.766 2.4251 24.0593 2.19922 23.3241C2.26735 22.9642 2.40871 22.6344 2.62328 22.3346C2.7922 22.5886 3.02784 22.73 3.33006 22.7587C3.33006 22.9943 3.33006 23.2298 3.33006 23.4654C3.47876 23.4444 3.62012 23.4678 3.75412 23.5361C3.62973 23.7278 3.58251 23.9398 3.61276 24.1722C3.9465 24.1968 4.27628 24.2439 4.60225 24.3136C4.60225 24.5492 4.60225 24.7847 4.60225 25.0203C5.03804 24.9403 5.46211 24.9403 5.87444 25.0203C5.99968 24.9037 6.04675 24.7624 6.01579 24.5963C6.15715 24.5963 6.2985 24.5963 6.43986 24.5963C6.43986 24.7376 6.43986 24.879 6.43986 25.0203C6.76964 25.0203 7.09956 25.0203 7.42934 25.0203C7.4791 24.6064 7.57324 24.2058 7.71205 23.8188C7.64745 23.7603 7.60024 23.6896 7.57069 23.6068C7.6801 23.4356 7.79785 23.4356 7.92408 23.6068C8.0113 23.4726 7.98783 23.3549 7.8534 23.2534C8.02826 23.2206 8.16961 23.1499 8.27747 23.0414Z" fill="url(#paint3_linear_140_432)" fill-opacity="0.3"/>
<path fill-rule="evenodd" clip-rule="evenodd" d="M25.6628 11.0263C26.0426 11.0031 26.4196 11.0267 26.7936 11.0969C26.8964 11.2947 26.967 11.5067 27.0056 11.733C27.0999 13.4293 27.0999 15.1255 27.0056 16.8218C26.9672 17.4686 26.8494 18.0811 26.6522 18.6594C26.2844 19.4222 25.884 20.2703 25.4507 21.2038C25.073 21.8867 24.5783 22.4521 23.9665 22.9C23.7138 22.7414 23.431 22.7178 23.1184 22.8294C20.3525 25.3145 17.1956 25.9741 13.6476 24.8083C11.718 24.0327 10.2574 22.7369 9.26562 20.9211C11.5831 23.6805 14.5516 24.882 18.171 24.5256C22.4301 23.7531 25.0216 21.2558 25.9455 17.0338C25.9703 16.7004 25.8761 16.6297 25.6628 16.8218C26.1359 15.338 25.9945 13.9244 25.2387 12.5812C25.662 12.9548 25.9448 13.426 26.0868 13.9947C26.2703 13.1201 26.1762 12.272 25.8041 11.4503C26.0272 11.3375 26.2627 11.2668 26.5109 11.2383C26.1988 11.2113 25.9161 11.1406 25.6628 11.0263Z" fill="#F7FBE9"/>
<path fill-rule="evenodd" clip-rule="evenodd" d="M14.638 20.921C16.0518 22.0414 17.4654 22.0414 18.8787 20.921C19.2617 21.3048 19.2147 21.6582 18.7373 21.9812C17.8003 22.4491 16.8108 22.5904 15.7689 22.4052C15.2354 22.2212 14.7877 21.9149 14.426 21.4864C14.3836 21.2651 14.4543 21.0767 14.638 20.921Z" fill="#091547"/>
<path fill-rule="evenodd" clip-rule="evenodd" d="M8.13825 11.0263C7.61156 11.9392 7.39953 12.9287 7.50215 13.9948C7.65976 13.7827 7.77751 13.5471 7.85554 13.288C7.71135 13.0149 7.68775 12.7322 7.78486 12.4399C7.93809 12.7624 8.15012 12.8096 8.42095 12.5812C8.18376 13.0338 7.97173 13.505 7.78486 13.9948C7.71432 14.6528 7.69072 15.3123 7.71418 15.9737C7.71418 16.0208 7.71418 16.068 7.71418 16.1151C7.62386 16.1995 7.57679 16.3172 7.57283 16.4685C7.84776 18.0716 8.41318 19.5558 9.26908 20.9211C10.2608 22.737 11.7214 24.0328 13.6511 24.8084C17.1991 25.9741 20.3559 25.3146 23.1218 22.8294C23.4345 22.7179 23.7172 22.7415 23.97 22.9001C23.6219 23.3191 23.245 23.7195 22.8391 24.1016C18.7972 26.8105 14.7452 26.8341 10.6826 24.1723C7.97003 22.1396 6.60356 19.4068 6.58334 15.9737C6.54857 14.3203 6.59564 12.6711 6.7247 11.0263C7.19583 11.0263 7.66711 11.0263 8.13825 11.0263Z" fill="#F7FBE9"/>
<path fill-rule="evenodd" clip-rule="evenodd" d="M18.4565 26.8578C18.6329 26.9757 18.7272 27.1642 18.7392 27.4233C18.7874 27.8923 18.599 28.2222 18.1738 28.4127C18.1738 28.2714 18.1738 28.13 18.1738 27.9887C18.2681 27.6117 18.3623 27.2348 18.4565 26.8578Z" fill="#F7FBE9"/>
<path fill-rule="evenodd" clip-rule="evenodd" d="M2.05563 23.3242C2.1027 23.3242 2.14991 23.3242 2.19698 23.3242C2.42287 24.0594 2.72918 24.7661 3.11579 25.4445C4.19546 27.1597 5.53832 28.6205 7.14439 29.8265C7.7689 30.3995 8.47567 30.8707 9.26471 31.24C9.31178 31.2164 9.359 31.193 9.40607 31.1694C9.25425 31.0649 9.15997 30.9235 9.12336 30.7453C9.32846 30.3279 9.5641 29.9273 9.83013 29.5438C9.75945 29.4967 9.68878 29.4495 9.6181 29.4024C8.88843 29.6519 8.15819 29.7462 7.4271 29.6851C7.43728 29.4291 7.55503 29.2407 7.78049 29.1197C8.95571 28.8991 10.1102 28.6164 11.2437 28.2716C11.5568 28.3801 11.8866 28.4744 12.2332 28.5543C11.9174 28.8294 11.5404 28.9943 11.1023 29.049C10.6983 29.5237 10.3213 30.0184 9.97149 30.5333C10.2542 30.816 10.5369 31.0987 10.8196 31.3814C10.7522 31.5196 10.658 31.6374 10.5369 31.7348C11.32 32.2712 12.1681 32.5303 13.0813 32.5122C12.9669 32.2902 12.9197 32.0545 12.9399 31.8055C13.0042 31.5415 13.0985 31.2824 13.2226 31.028C13.2249 30.7022 13.0835 30.4665 12.7986 30.3212C12.9839 29.6895 12.9839 29.0534 12.7986 28.4129C12.9152 28.2877 13.0566 28.2406 13.2226 28.2716C13.0489 29.6974 13.2609 31.0638 13.8587 32.3709C14.2615 31.9363 14.6621 31.5123 15.0603 31.0987C15.3167 31.4471 15.5051 31.8241 15.6257 32.2295C15.5105 32.0982 15.3927 31.9568 15.2723 31.8055C14.0212 32.9298 14.2803 33.3538 16.0497 33.0776C15.9984 32.9811 15.9514 32.8868 15.9084 32.7949C16.3271 32.7408 16.4684 32.8822 16.3324 33.219C16.6528 33.3341 16.9827 33.4047 17.3219 33.431C16.4356 33.5939 15.5404 33.688 14.6362 33.7137C16.55 33.772 18.4347 33.7954 20.2904 33.7844C14.8884 34.8135 10.0823 33.5884 5.8722 30.1092C5.93412 30.1184 5.98133 30.0949 6.01356 30.0385C2.77823 27.2206 0.893554 23.6633 0.359375 19.3662C0.453517 17.955 0.524194 16.5414 0.571407 15.1256C0.573103 16.5749 0.690993 18.0121 0.924793 19.4369C0.927338 19.7793 0.833054 20.0855 0.642084 20.3557C0.673041 20.559 0.743718 20.7474 0.854116 20.9211C0.946562 20.7521 1.01724 20.7521 1.06615 20.9211C0.988968 21.101 0.941897 21.2895 0.924793 21.4866C1.15167 21.6737 1.24581 22.0035 1.2075 22.476C1.7021 22.442 1.74917 22.5597 1.34886 22.8294C1.79667 22.9117 1.84374 23.0531 1.49021 23.2535C1.65729 23.5034 1.84572 23.527 2.05563 23.3242Z" fill="#071748"/>
<path fill-rule="evenodd" clip-rule="evenodd" d="M5.87378 12.4398C5.96099 12.4555 6.03167 12.5026 6.08581 12.5812C6.18009 13.1937 6.18009 13.8063 6.08581 14.4188C6.05881 14.1067 5.98814 13.824 5.87378 13.5707C5.39628 14.1012 5.20786 14.7373 5.30836 15.4789C5.35444 16.5822 5.59008 17.6424 6.01513 18.6594C6.00001 18.925 6.07069 18.9721 6.22717 18.8008C6.27424 17.5757 6.32145 16.3507 6.36852 15.1256C6.39552 15.4377 6.4662 15.7204 6.58055 15.9737C6.60077 19.4068 7.96724 22.1396 10.6798 24.1723C12.8229 25.86 15.2732 26.6139 18.0303 26.4339C18.6446 26.4105 19.2571 26.4341 19.8679 26.5046C19.386 26.6454 18.9149 26.7631 18.4543 26.858C18.3601 27.235 18.2659 27.6118 18.1716 27.9888C18.0112 27.7467 17.7756 27.6524 17.4649 27.7061C17.021 27.5448 16.5499 27.5212 16.0513 27.6354C15.7928 27.674 15.5807 27.7919 15.4152 27.9888C15.2209 27.6443 15.1502 27.2675 15.2032 26.858C15.0618 26.858 14.9205 26.858 14.7791 26.858C14.7605 27.2919 14.8075 27.716 14.9205 28.1302C14.9083 28.271 14.9555 28.3887 15.0618 28.4836C16.1016 28.5075 17.1382 28.5781 18.1716 28.6956C18.1002 28.8962 17.9589 28.9903 17.7476 28.9783C17.3706 28.9783 16.9937 28.9783 16.6167 28.9783C16.3302 28.9554 16.0475 28.979 15.7686 29.049C16.1456 29.3122 16.4754 29.6184 16.7581 29.9678C16.8142 30.1127 16.9083 30.1363 17.0408 30.0385C17.2058 29.8735 17.3706 29.7087 17.5355 29.5437C17.6298 29.7322 17.6298 29.9207 17.5355 30.1091C17.2771 30.3818 17.3242 30.4289 17.6769 30.2505C18.0922 30.6813 18.1158 31.1525 17.7476 31.664C17.8619 31.8861 17.9091 32.1217 17.8889 32.3708C17.7292 32.6274 17.635 32.9101 17.6062 33.2189C18.1493 33.1723 18.6676 33.0545 19.1611 32.8656C18.9371 32.5731 18.7485 32.2668 18.5957 31.9468C18.6626 31.748 18.8039 31.6537 19.0198 31.664C19.2866 31.8676 19.5223 32.1031 19.7265 32.3708C19.8956 32.1383 20.0369 31.9028 20.1506 31.664C20.6559 31.0641 20.7973 30.381 20.5747 29.6144C20.6866 28.9995 20.875 28.4106 21.1401 27.8475C21.3285 27.8945 21.5171 27.9418 21.7055 27.9888C21.5442 28.2133 21.3322 28.4017 21.0694 28.5542C20.9989 29.0705 20.9754 29.5887 20.9987 30.1091C20.9303 30.8751 20.789 31.6291 20.5747 32.3708C20.6217 32.4651 20.6689 32.5592 20.716 32.6535C20.8907 32.5481 21.0793 32.501 21.2814 32.5122C21.6516 32.4743 22.005 32.5214 22.3416 32.6535C22.1721 32.8579 22.0071 33.0934 21.8468 33.3603C21.3223 33.4796 20.8041 33.621 20.2919 33.7844C18.4362 33.7954 16.5516 33.7719 14.6378 33.7137C15.542 33.688 16.4372 33.5938 17.3235 33.431C16.9843 33.4047 16.6543 33.334 16.334 33.2189C16.47 32.8821 16.3286 32.7407 15.91 32.7949C15.744 32.6515 15.6499 32.4631 15.6272 32.2295C15.5067 31.8241 15.3182 31.4471 15.0618 31.0986C15.3134 30.6811 15.5961 30.2806 15.91 29.8971C14.8685 29.2487 14.2324 28.3299 14.0017 27.1407C13.7742 27.5516 13.5151 27.9285 13.2242 28.2715C13.0581 28.2406 12.9168 28.2876 12.8002 28.4129C12.9855 29.0534 12.9855 29.6895 12.8002 30.3212C13.0851 30.4665 13.2265 30.7021 13.2242 31.0279C13.1001 31.2824 13.0058 31.5415 12.9415 31.8054C12.6991 30.7023 12.4636 29.6186 12.2347 28.5542C11.8881 28.4744 11.5584 28.3801 11.2453 28.2715C11.8084 28.0373 12.3738 27.8017 12.9415 27.5648C13.2022 27.2139 13.3906 26.8369 13.5069 26.4339C11.4683 25.7623 9.72499 24.6315 8.27681 23.0414C7.55774 22.0283 6.94525 20.9447 6.4392 19.7903C5.97202 19.5822 5.61863 19.2524 5.37904 18.8008C5.03484 18.1313 4.79934 17.4245 4.67227 16.6805C4.26036 15.0135 4.66082 13.5999 5.87378 12.4398Z" fill="#06164B"/>
<path fill-rule="evenodd" clip-rule="evenodd" d="M17.4671 27.706C17.1843 27.706 16.9016 27.706 16.6189 27.706C16.6189 27.9417 16.6189 28.1772 16.6189 28.4128C16.0093 28.4849 15.4438 28.3906 14.9227 28.1301C14.8097 27.7159 14.7627 27.2919 14.7813 26.8579C14.9227 26.8579 15.064 26.8579 15.2054 26.8579C15.1524 27.2674 15.223 27.6443 15.4174 27.9887C15.5829 27.7918 15.795 27.674 16.0535 27.6354C16.5521 27.5211 17.0232 27.5448 17.4671 27.706Z" fill="#F7FBE9"/>
<path fill-rule="evenodd" clip-rule="evenodd" d="M17.4653 27.7061C17.776 27.6524 18.0117 27.7467 18.1721 27.9888C18.1721 28.1302 18.1721 28.2715 18.1721 28.4129C17.6537 28.4129 17.1355 28.4129 16.6172 28.4129C16.6172 28.1772 16.6172 27.9417 16.6172 27.7061C16.8999 27.7061 17.1826 27.7061 17.4653 27.7061Z" fill="#F7FBE9"/>
<path fill-rule="evenodd" clip-rule="evenodd" d="M20.1491 31.6641C20.0355 31.9028 19.8941 32.1383 19.7251 32.3709C19.5208 32.1031 19.2852 31.8676 19.0183 31.6641C18.5976 31.1012 18.1736 30.5358 17.7461 29.9678C18.1679 29.4752 18.6156 29.0041 19.089 28.5543C19.3499 28.1205 19.4913 27.6493 19.513 27.1407C19.9398 27.5228 20.2225 27.994 20.3612 28.5543C20.46 29.603 20.3893 30.6396 20.1491 31.6641Z" fill="#F5F6E7"/>
<path fill-rule="evenodd" clip-rule="evenodd" d="M16.6172 28.9783C16.9942 28.9783 17.371 28.9783 17.748 28.9783C17.6537 29.1667 17.5124 29.3081 17.324 29.4023C16.9303 29.4849 16.6946 29.3435 16.6172 28.9783Z" fill="#F7FBE9"/>
<path fill-rule="evenodd" clip-rule="evenodd" d="M15.0603 31.0987C14.6622 31.5123 14.2616 31.9363 13.8588 32.3709C13.261 31.0638 13.049 29.6974 13.2227 28.2716C13.5136 27.9285 13.7728 27.5517 14.0002 27.1407C14.2309 28.33 14.867 29.2488 15.9085 29.8972C15.5947 30.2807 15.312 30.6811 15.0603 31.0987Z" fill="#F5F6E5"/>
<path fill-rule="evenodd" clip-rule="evenodd" d="M21.279 32.5122C21.0769 32.501 20.8883 32.5481 20.7136 32.6535C20.6665 32.5593 20.6193 32.4651 20.5723 32.3708C20.7866 31.6291 20.9279 30.8752 20.9963 30.1092C21.1347 29.6674 21.1819 29.1963 21.1377 28.6956C21.5588 28.8111 21.9828 28.929 22.4099 29.049C22.7221 29.5559 23.052 30.0506 23.3994 30.5332C23.1166 30.7689 22.8339 31.0044 22.5512 31.24C22.6662 31.4257 22.8075 31.5907 22.9753 31.7347C22.4182 32.0371 21.8528 32.2962 21.279 32.5122Z" fill="#F7FBE9"/>
<path fill-rule="evenodd" clip-rule="evenodd" d="M29.6243 27.8474C30.4518 29.5746 31.2527 31.3181 32.0274 33.0775C29.617 32.4474 27.214 31.6935 24.8183 30.8158C24.8061 30.675 24.8533 30.5573 24.9596 30.4625C25.2289 30.2616 25.5116 30.0966 25.8078 29.9677C25.9491 29.9677 26.0905 29.9677 26.2318 29.9677C26.2713 29.5976 26.3655 29.2443 26.5145 28.9076C27.0587 28.5173 27.5771 28.0932 28.0694 27.6354C28.3121 27.415 28.5948 27.2972 28.9176 27.282C28.8965 27.1333 28.92 26.9919 28.9882 26.8579C29.0353 27.1406 29.0825 27.4233 29.1296 27.706C29.1767 27.5647 29.2239 27.4233 29.2709 27.282C29.2992 27.5392 29.4171 27.7277 29.6243 27.8474Z" fill="#66FFFF"/>
<path fill-rule="evenodd" clip-rule="evenodd" d="M29.6243 27.8474C30.4518 29.5746 31.2527 31.3181 32.0274 33.0775C29.617 32.4474 27.214 31.6935 24.8183 30.8158C24.8061 30.675 24.8533 30.5573 24.9596 30.4625C25.2289 30.2616 25.5116 30.0966 25.8078 29.9677C25.9491 29.9677 26.0905 29.9677 26.2318 29.9677C26.2713 29.5976 26.3655 29.2443 26.5145 28.9076C27.0587 28.5173 27.5771 28.0932 28.0694 27.6354C28.3121 27.415 28.5948 27.2972 28.9176 27.282C28.8965 27.1333 28.92 26.9919 28.9882 26.8579C29.0353 27.1406 29.0825 27.4233 29.1296 27.706C29.1767 27.5647 29.2239 27.4233 29.2709 27.282C29.2992 27.5392 29.4171 27.7277 29.6243 27.8474Z" fill="url(#paint4_linear_140_432)" fill-opacity="0.3"/>
<path fill-rule="evenodd" clip-rule="evenodd" d="M16.6157 28.9782C16.6932 29.3435 16.9288 29.4849 17.3225 29.4023C17.1811 29.6379 16.9927 29.8264 16.7571 29.9677C16.4744 29.6183 16.1446 29.3121 15.7676 29.0489C16.0465 28.979 16.3292 28.9553 16.6157 28.9782Z" fill="#F7FBE9"/>
<path fill-rule="evenodd" clip-rule="evenodd" d="M7.14844 29.8264C7.28866 29.8507 7.3828 29.8035 7.43115 29.6851C8.16223 29.7461 8.89247 29.6518 9.62214 29.4023C9.69282 29.4494 9.7635 29.4966 9.83417 29.5437C9.56815 29.9272 9.33251 30.3278 9.1274 30.7452C9.16401 30.9235 9.2583 31.0648 9.41011 31.1693C9.36304 31.1929 9.31583 31.2163 9.26876 31.24C8.47972 30.8706 7.77294 30.3995 7.14844 29.8264Z" fill="#F7FBE9"/>
<path fill-rule="evenodd" clip-rule="evenodd" d="M12.2363 28.5542C12.4651 29.6186 12.7006 30.7022 12.9431 31.8054C12.9228 32.0544 12.9701 32.2901 13.0844 32.5121C12.1713 32.5302 11.3231 32.2711 10.54 31.7347C10.6612 31.6373 10.7553 31.5195 10.8227 31.3813C10.54 31.0986 10.2573 30.8159 9.97461 30.5332C10.3245 30.0184 10.7015 29.5236 11.1054 29.0489C11.5435 28.9942 11.9205 28.8293 12.2363 28.5542Z" fill="#F7FBE9"/>
<path fill-rule="evenodd" clip-rule="evenodd" d="M32.8711 31.8054C33.2184 32.265 33.454 32.7833 33.5779 33.3603C33.2306 32.9008 32.9949 32.3824 32.8711 31.8054Z" fill="#071646"/>
<path fill-rule="evenodd" clip-rule="evenodd" d="M18.5969 31.9467C18.7497 32.2667 18.9383 32.5731 19.1623 32.8655C18.6689 33.0545 18.1505 33.1723 17.6074 33.2189C17.6363 32.91 17.7304 32.6273 17.8901 32.3708C18.0285 32.192 18.1699 32.0034 18.3142 31.8054C18.4107 31.8567 18.505 31.9037 18.5969 31.9467Z" fill="#EDEFE0"/>
<path fill-rule="evenodd" clip-rule="evenodd" d="M15.6268 32.2294C15.6494 32.4631 15.7436 32.6515 15.9095 32.7948C15.9525 32.8867 15.9996 32.981 16.0509 33.0776C14.2814 33.3538 14.0223 32.9297 15.2734 31.8054C15.3939 31.9567 15.5116 32.0981 15.6268 32.2294Z" fill="#E6EAE0"/>
<path fill-rule="evenodd" clip-rule="evenodd" d="M39.0923 7.77515C39.1394 7.77515 39.1866 7.77515 39.2337 7.77515C39.2851 8.44616 39.0496 8.98811 38.5269 9.40072C36.7275 10.3935 34.9841 11.4536 33.2968 12.5812C33.2124 12.6144 33.1653 12.6851 33.1554 12.7932C33.4352 13.8828 33.6001 14.99 33.6502 16.1151C33.7043 16.1937 33.775 16.2407 33.8622 16.2564C33.8843 16.8334 33.8136 17.3988 33.6502 17.9527C32.96 19.0654 32.8422 20.2435 33.2968 21.4865C32.7539 23.5147 31.8351 25.3523 30.5404 26.9994C30.2677 28.1504 30.6683 28.9513 31.7419 29.4024C32.2334 30.1497 32.6102 30.9507 32.8727 31.8054C32.9966 32.3824 33.2322 32.9008 33.5795 33.3603C33.698 33.4087 33.7452 33.5028 33.7209 33.643C33.7808 34.0465 33.9222 34.4235 34.1449 34.7739C34.0979 34.8209 34.0506 34.8682 34.0036 34.9152C32.0509 34.1701 30.0719 33.5104 28.0667 32.9363C26.9924 32.6489 25.9322 32.319 24.8862 31.9468C23.8802 32.4381 22.8671 32.9093 21.8471 33.3603C22.0074 33.0935 22.1723 32.858 22.3418 32.6536C22.0053 32.5214 21.6519 32.4743 21.2817 32.5122C21.8554 32.2962 22.4208 32.0371 22.9779 31.7347C22.8101 31.5907 22.6688 31.4257 22.5539 31.24C22.8366 31.0044 23.1193 30.7689 23.402 30.5332C23.0547 30.0507 22.7247 29.5559 22.4125 29.049C21.9855 28.929 21.5614 28.8111 21.1403 28.6956C21.1845 29.1963 21.1373 29.6674 20.9989 30.1092C20.9756 29.5887 20.9991 29.0705 21.0696 28.5543C21.3324 28.4018 21.5444 28.2133 21.7057 27.9889C22.9181 28.5287 24.1903 28.8821 25.5223 29.049C26.0651 29.2192 26.1594 29.4783 25.805 29.8265C25.1165 29.7192 24.4332 29.5778 23.7554 29.4024C23.6847 29.4495 23.614 29.4967 23.5433 29.5438C23.7986 29.9639 24.0813 30.3643 24.3915 30.7453C24.3444 30.7923 24.2972 30.8396 24.2501 30.8866C24.4366 30.9142 24.6251 30.8906 24.8155 30.8159C27.2112 31.6936 29.6142 32.4475 32.0246 33.0776C31.25 31.3182 30.4491 29.5747 29.6216 27.8475C29.5052 27.5711 29.4816 27.2884 29.5509 26.9994C31.4819 24.4547 32.5421 21.5805 32.7314 18.3767C32.931 16.6228 32.8131 14.8793 32.378 13.1466C32.3345 13.0324 32.2638 12.9381 32.166 12.8639C31.8014 13.0344 31.448 13.2228 31.1058 13.4293C31.0351 13.3587 30.9644 13.288 30.8938 13.2173C31.1826 12.7575 31.4889 12.3098 31.8126 11.8744C31.7664 11.1007 31.5073 10.3939 31.0351 9.75411C29.8118 9.80076 29.1051 9.23534 28.9148 8.05786C29.245 8.55373 29.7161 8.83644 30.3284 8.90598C31.5757 9.02331 32.8479 9.09398 34.1449 9.11802C33.4724 9.42108 32.7656 9.53883 32.0246 9.4714C32.0365 9.92119 32.2249 10.251 32.59 10.4609C32.59 10.508 32.59 10.5552 32.59 10.6022C32.4108 10.9422 32.3165 11.3192 32.3073 11.7331C32.2327 11.9057 32.1384 12.0705 32.0246 12.2278C34.1878 11.1688 36.3081 9.99088 38.3856 8.69395C38.7093 8.44276 38.9449 8.13645 39.0923 7.77515ZM32.59 10.6022C32.59 10.5552 32.59 10.508 32.59 10.4609C32.59 10.2252 32.59 9.98975 32.59 9.75411C33.2435 9.90154 33.2435 10.1843 32.59 10.6022Z" fill="#071646"/>
<path fill-rule="evenodd" clip-rule="evenodd" d="M25.8007 29.8264C25.8007 29.8735 25.8007 29.9207 25.8007 29.9678C25.5046 30.0967 25.2219 30.2616 24.9526 30.4625C24.8463 30.5574 24.7991 30.6751 24.8113 30.8159C24.6208 30.8905 24.4323 30.9141 24.2458 30.8866C24.2929 30.8395 24.3401 30.7923 24.3872 30.7452C24.0771 30.3643 23.7943 29.9638 23.5391 29.5437C23.6097 29.4966 23.6804 29.4494 23.7511 29.4023C24.4289 29.5778 25.1122 29.7191 25.8007 29.8264Z" fill="#F7FBE9"/>
<path fill-rule="evenodd" clip-rule="evenodd" d="M30.3301 8.90595C31.7445 8.88249 33.158 8.90595 34.5707 8.97663C33.836 9.92215 33.0821 10.841 32.309 11.733C32.3182 11.3192 32.4125 10.9422 32.5918 10.6022C33.2452 10.1842 33.2452 9.90151 32.5918 9.75408C32.5918 9.98972 32.5918 10.2252 32.5918 10.4609C32.2266 10.2509 32.0382 9.92116 32.0263 9.47137C32.7673 9.5388 33.4741 9.42105 34.1467 9.11798C32.8496 9.09395 31.5774 9.02327 30.3301 8.90595Z" fill="#071646"/>
<path opacity="0.192" fill-rule="evenodd" clip-rule="evenodd" d="M28.0664 32.9362C30.0717 33.5104 32.0506 34.1701 34.0033 34.9152C34.0504 34.8681 34.0976 34.8209 34.1447 34.7738C33.9219 34.4234 33.7805 34.0464 33.7206 33.643C34.062 34.0444 34.2504 34.5156 34.286 35.0565C32.8059 34.6811 31.3453 34.2334 29.904 33.7137C29.26 33.4923 28.6474 33.2332 28.0664 32.9362Z" fill="#071646"/>
<ellipse cx="11.7399" cy="15.1255" rx="4.09928" ry="4.45267" fill="#071646"/>
<circle cx="11.7421" cy="15.1962" r="3.39251" fill="white"/>
<circle cx="11.67" cy="15.2668" r="0.77745" fill="#0077FF"/>
<ellipse cx="21.9196" cy="15.1255" rx="4.09928" ry="4.45267" fill="#071646"/>
<circle cx="21.9218" cy="15.1962" r="3.39251" fill="white"/>
<circle cx="21.8497" cy="15.2668" r="0.77745" fill="#0077FF"/>
<path d="M37.7 28.5C37.7 27.1267 38.0067 25.9 38.62 24.82C39.2467 23.7267 40.0933 22.88 41.16 22.28C42.24 21.6667 43.4467 21.36 44.78 21.36C46.34 21.36 47.7067 21.76 48.88 22.56C50.0533 23.36 50.8733 24.4667 51.34 25.88H48.12C47.8 25.2133 47.3467 24.7133 46.76 24.38C46.1867 24.0467 45.52 23.88 44.76 23.88C43.9467 23.88 43.22 24.0733 42.58 24.46C41.9533 24.8333 41.46 25.3667 41.1 26.06C40.7533 26.7533 40.58 27.5667 40.58 28.5C40.58 29.42 40.7533 30.2333 41.1 30.94C41.46 31.6333 41.9533 32.1733 42.58 32.56C43.22 32.9333 43.9467 33.12 44.76 33.12C45.52 33.12 46.1867 32.9533 46.76 32.62C47.3467 32.2733 47.8 31.7667 48.12 31.1H51.34C50.8733 32.5267 50.0533 33.64 48.88 34.44C47.72 35.2267 46.3533 35.62 44.78 35.62C43.4467 35.62 42.24 35.32 41.16 34.72C40.0933 34.1067 39.2467 33.26 38.62 32.18C38.0067 31.1 37.7 29.8733 37.7 28.5ZM59.9716 24.26C60.8116 24.26 61.5582 24.4467 62.2116 24.82C62.8649 25.18 63.3716 25.72 63.7316 26.44C64.1049 27.1467 64.2916 28 64.2916 29V35.5H61.4916V29.38C61.4916 28.5 61.2716 27.8267 60.8316 27.36C60.3916 26.88 59.7916 26.64 59.0316 26.64C58.2582 26.64 57.6449 26.88 57.1916 27.36C56.7516 27.8267 56.5316 28.5 56.5316 29.38V35.5H53.7316V20.7H56.5316V25.8C56.8916 25.32 57.3716 24.9467 57.9716 24.68C58.5716 24.4 59.2382 24.26 59.9716 24.26ZM66.2342 29.92C66.2342 28.8 66.4542 27.8067 66.8942 26.94C67.3476 26.0733 67.9542 25.4067 68.7142 24.94C69.4876 24.4733 70.3476 24.24 71.2942 24.24C72.1209 24.24 72.8409 24.4067 73.4542 24.74C74.0809 25.0733 74.5809 25.4933 74.9542 26V24.42H77.7742V35.5H74.9542V33.88C74.5942 34.4 74.0942 34.8333 73.4542 35.18C72.8276 35.5133 72.1009 35.68 71.2742 35.68C70.3409 35.68 69.4876 35.44 68.7142 34.96C67.9542 34.48 67.3476 33.8067 66.8942 32.94C66.4542 32.06 66.2342 31.0533 66.2342 29.92ZM74.9542 29.96C74.9542 29.28 74.8209 28.7 74.5542 28.22C74.2876 27.7267 73.9276 27.3533 73.4742 27.1C73.0209 26.8333 72.5342 26.7 72.0142 26.7C71.4942 26.7 71.0142 26.8267 70.5742 27.08C70.1342 27.3333 69.7742 27.7067 69.4942 28.2C69.2276 28.68 69.0942 29.2533 69.0942 29.92C69.0942 30.5867 69.2276 31.1733 69.4942 31.68C69.7742 32.1733 70.1342 32.5533 70.5742 32.82C71.0276 33.0867 71.5076 33.22 72.0142 33.22C72.5342 33.22 73.0209 33.0933 73.4742 32.84C73.9276 32.5733 74.2876 32.2 74.5542 31.72C74.8209 31.2267 74.9542 30.64 74.9542 29.96ZM83.7689 26.72V32.08C83.7689 32.4533 83.8556 32.7267 84.0289 32.9C84.2156 33.06 84.5222 33.14 84.9489 33.14H86.2489V35.5H84.4889C82.1289 35.5 80.9489 34.3533 80.9489 32.06V26.72H79.6289V24.42H80.9489V21.68H83.7689V24.42H86.2489V26.72H83.7689ZM106.923 21.54L103.023 35.5H99.7228L97.1028 25.56L94.3628 35.5L91.0828 35.52L87.3228 21.54H90.3228L92.7828 32.38L95.6228 21.54H98.7428L101.423 32.32L103.903 21.54H106.923ZM110.171 23.1C109.678 23.1 109.264 22.9467 108.931 22.64C108.611 22.32 108.451 21.9267 108.451 21.46C108.451 20.9933 108.611 20.6067 108.931 20.3C109.264 19.98 109.678 19.82 110.171 19.82C110.664 19.82 111.071 19.98 111.391 20.3C111.724 20.6067 111.891 20.9933 111.891 21.46C111.891 21.9267 111.724 22.32 111.391 22.64C111.071 22.9467 110.664 23.1 110.171 23.1ZM111.551 24.42V35.5H108.751V24.42H111.551ZM117.578 26.72V32.08C117.578 32.4533 117.664 32.7267 117.838 32.9C118.024 33.06 118.331 33.14 118.758 33.14H120.058V35.5H118.298C115.938 35.5 114.758 34.3533 114.758 32.06V26.72H113.438V24.42H114.758V21.68H117.578V24.42H120.058V26.72H117.578ZM128.311 24.26C129.151 24.26 129.898 24.4467 130.551 24.82C131.205 25.18 131.711 25.72 132.071 26.44C132.445 27.1467 132.631 28 132.631 29V35.5H129.831V29.38C129.831 28.5 129.611 27.8267 129.171 27.36C128.731 26.88 128.131 26.64 127.371 26.64C126.598 26.64 125.985 26.88 125.531 27.36C125.091 27.8267 124.871 28.5 124.871 29.38V35.5H122.071V20.7H124.871V25.8C125.231 25.32 125.711 24.9467 126.311 24.68C126.911 24.4 127.578 24.26 128.311 24.26Z" fill="white"/>
<path d="M144.94 32.84H139.38L138.46 35.5H135.52L140.54 21.52H143.8L148.82 35.5H145.86L144.94 32.84ZM144.18 30.6L142.16 24.76L140.14 30.6H144.18ZM154.696 21.54V35.5H151.896V21.54H154.696Z" fill="#66FFFF"/>
<path d="M144.94 32.84H139.38L138.46 35.5H135.52L140.54 21.52H143.8L148.82 35.5H145.86L144.94 32.84ZM144.18 30.6L142.16 24.76L140.14 30.6H144.18ZM154.696 21.54V35.5H151.896V21.54H154.696Z" fill="url(#paint5_linear_140_432)" fill-opacity="0.3"/>
<defs>
<linearGradient id="paint0_linear_140_432" x1="28.9043" y1="7.34879" x2="39.0995" y2="7.34879" gradientUnits="userSpaceOnUse">
<stop stop-color="#1F01B9"/>
<stop offset="1" stop-color="#0077FF"/>
</linearGradient>
<linearGradient id="paint1_linear_140_432" x1="0.908203" y1="13.325" x2="32.8246" y2="13.325" gradientUnits="userSpaceOnUse">
<stop stop-color="#1F01B9"/>
<stop offset="1" stop-color="#0077FF"/>
</linearGradient>
<linearGradient id="paint2_linear_140_432" x1="20.0078" y1="24.1689" x2="32.7297" y2="24.1689" gradientUnits="userSpaceOnUse">
<stop stop-color="#1F01B9"/>
<stop offset="1" stop-color="#0077FF"/>
</linearGradient>
<linearGradient id="paint3_linear_140_432" x1="2.19922" y1="26.1708" x2="13.5076" y2="26.1708" gradientUnits="userSpaceOnUse">
<stop stop-color="#1F01B9"/>
<stop offset="1" stop-color="#0077FF"/>
</linearGradient>
<linearGradient id="paint4_linear_140_432" x1="24.8164" y1="30.04" x2="32.0274" y2="30.04" gradientUnits="userSpaceOnUse">
<stop stop-color="#1F01B9"/>
<stop offset="1" stop-color="#0077FF"/>
</linearGradient>
<linearGradient id="paint5_linear_140_432" x1="135" y1="28.8488" x2="157" y2="28.8488" gradientUnits="userSpaceOnUse">
<stop stop-color="#1F01B9"/>
<stop offset="1" stop-color="#0077FF"/>
</linearGradient>
</defs>
</svg>
