<svg width="216" height="4" viewBox="0 0 216 4" fill="none" xmlns="http://www.w3.org/2000/svg">
<path opacity="0.6" d="M0.666667 2C0.666667 2.73638 1.26362 3.33333 2 3.33333C2.73638 3.33333 3.33333 2.73638 3.33333 2C3.33333 1.26362 2.73638 0.666667 2 0.666667C1.26362 0.666667 0.666667 1.26362 0.666667 2ZM212.667 2C212.667 2.73638 213.264 3.33333 214 3.33333C214.736 3.33333 215.333 2.73638 215.333 2C215.333 1.26362 214.736 0.666667 214 0.666667C213.264 0.666667 212.667 1.26362 212.667 2ZM2 2.25H214V1.75H2V2.25Z" fill="#F4F1BB"/>
</svg>
